<svg width="40" height="41" viewBox="0 0 40 41" fill="none" xmlns="http://www.w3.org/2000/svg">
<g clip-path="url(#clip0_7995_20931)">
<path d="M31.25 35.968H8.75C8.41848 35.968 8.10054 35.8363 7.86612 35.6019C7.6317 35.3675 7.5 35.0495 7.5 34.718V7.21802C7.5 6.8865 7.6317 6.56855 7.86612 6.33413C8.10054 6.09971 8.41848 5.96802 8.75 5.96802H23.75L32.5 14.718V34.718C32.5 35.0495 32.3683 35.3675 32.1339 35.6019C31.8995 35.8363 31.5815 35.968 31.25 35.968Z" stroke="#44479E" stroke-width="2.5" stroke-linecap="round" stroke-linejoin="round"/>
<path d="M23.75 5.96802V14.718H32.5" stroke="#44479E" stroke-width="2.5" stroke-linecap="round" stroke-linejoin="round"/>
<path d="M15 22.218H25" stroke="#44479E" stroke-width="2.5" stroke-linecap="round" stroke-linejoin="round"/>
<path d="M15 27.218H25" stroke="#44479E" stroke-width="2.5" stroke-linecap="round" stroke-linejoin="round"/>
</g>
<defs>
<clipPath id="clip0_7995_20931">
<rect width="40" height="40" fill="white" transform="translate(0 0.968018)"/>
</clipPath>
</defs>
</svg>
